<svg width="18" height="20" viewBox="0 0 18 20" fill="none" xmlns="http://www.w3.org/2000/svg">
<path d="M4.8125 18.75C4.43125 18.75 4.06561 18.5985 3.79603 18.329C3.52644 18.0594 3.375 17.6937 3.375 17.3125L4 9.5H5.6875L6.3125 17.3125C6.31268 17.5067 6.27354 17.6988 6.19742 17.8774C6.1213 18.056 6.00979 18.2174 5.86961 18.3517C5.72944 18.4861 5.5635 18.5906 5.38182 18.659C5.20013 18.7275 5.00647 18.7584 4.8125 18.75Z" stroke="black" stroke-width="1.5" stroke-linecap="round" stroke-linejoin="round"/>
<path d="M4.8125 9.50001C6.64195 9.50001 8.12499 7.65318 8.12499 5.375C8.12499 3.09683 6.64195 1.25 4.8125 1.25C2.98306 1.25 1.5 3.09683 1.5 5.375C1.5 7.65318 2.98306 9.50001 4.8125 9.50001Z" stroke="black" stroke-width="1.5" stroke-linecap="round" stroke-linejoin="round"/>
<path d="M14 18.75C13.6187 18.75 13.2531 18.5985 12.9835 18.329C12.7139 18.0594 12.5625 17.6937 12.5625 17.3125L13.1875 9.5H14.875L15.5 17.3125C15.5002 17.5067 15.461 17.6988 15.3849 17.8774C15.3088 18.056 15.1973 18.2174 15.0571 18.3517C14.9169 18.4861 14.751 18.5906 14.5693 18.659C14.3876 18.7275 14.194 18.7584 14 18.75Z" stroke="black" stroke-width="1.5" stroke-linecap="round" stroke-linejoin="round"/>
<path d="M16.8125 6.6875C16.7962 7.43911 16.4861 8.15442 15.9486 8.68015C15.4112 9.20587 14.6893 9.50018 13.9375 9.5C13.1916 9.5 12.4762 9.20368 11.9488 8.67624C11.4213 8.14879 11.125 7.43342 11.125 6.6875H16.8125Z" stroke="black" stroke-width="1.5" stroke-linecap="round" stroke-linejoin="round"/>
<path d="M11.125 1.5V6.68751" stroke="black" stroke-width="1.5" stroke-linecap="round" stroke-linejoin="round"/>
<path d="M13.9375 1.5V6.5625" stroke="black" stroke-width="1.5" stroke-linecap="round" stroke-linejoin="round"/>
<path d="M16.8125 1.5V6.68751" stroke="black" stroke-width="1.5" stroke-linecap="round" stroke-linejoin="round"/>
</svg>
