<svg width="20" height="20" viewBox="0 0 20 20" fill="none" xmlns="http://www.w3.org/2000/svg">
<path d="M1.25 10H18.375V11.625C18.375 13.2329 17.7363 14.7749 16.5993 15.9118C15.4624 17.0488 13.9204 17.6875 12.3125 17.6875H7.31251C5.70463 17.6875 4.1626 17.0488 3.02567 15.9118C1.88873 14.7749 1.25 13.2329 1.25 11.625V10Z" stroke="white" stroke-width="2" stroke-linecap="round" stroke-linejoin="round"/>
<path d="M1.8125 2.6875H2.06248C3.20622 2.6875 4.30312 3.14185 5.11187 3.9506C5.92062 4.75935 6.37499 5.85625 6.37499 7H6.12498C4.98123 7 3.88434 6.54564 3.07558 5.73689C2.26683 4.92814 1.8125 3.83125 1.8125 2.6875Z" stroke="white" stroke-width="2" stroke-linejoin="round"/>
<path d="M8.125 3.87501C8.22668 3.31755 8.51942 2.81293 8.95287 2.44793C9.38631 2.08293 9.93336 1.88033 10.5 1.875C11.1415 1.89085 11.7523 2.15276 12.206 2.60649C12.6598 3.06022 12.9217 3.67104 12.9375 4.31252C12.9265 4.56667 12.8845 4.81852 12.8125 5.0625L13.5625 4.93752C14.204 4.95336 14.8148 5.21525 15.2685 5.66898C15.7222 6.12271 15.9841 6.73354 16 7.37501" stroke="white" stroke-width="2" stroke-linecap="round" stroke-linejoin="round"/>
<path d="M12.6875 7.5625C12.0245 7.5625 11.3886 7.29911 10.9197 6.83027C10.4509 6.36143 10.1875 5.72554 10.1875 5.0625" stroke="white" stroke-width="2" stroke-linecap="round" stroke-linejoin="round"/>
</svg>
